<svg width="202" height="160" viewBox="0 0 202 160" fill="none" xmlns="http://www.w3.org/2000/svg">
<path d="M180.241 58.1818C192.258 58.1818 202 67.9502 202 80C202 92.0498 192.258 101.818 180.241 101.818L97.1915 101.818C85.1742 101.818 75.4322 92.0498 75.4322 80C75.4322 67.9502 85.1742 58.1818 97.1915 58.1818L180.241 58.1818Z" fill="#8381DC"/>
<path d="M202 0V43.6364L165.081 43.6364L95.4508 0L202 0Z" fill="#8381DC"/>
<path d="M79.7841 160C35.7206 160 0 124.183 0 80C0 35.8172 35.7206 0 79.7841 0L150.869 43.6364L79.7841 43.6364C59.7552 43.6364 43.5186 59.9169 43.5186 80C43.5186 100.083 59.7552 116.364 79.7841 116.364L150.869 116.364L202 116.364V160L79.7841 160Z" fill="#8381DC"/>
</svg>
